<svg xmlns="http://www.w3.org/2000/svg" viewBox="0 0 1000 600"><defs><style>.a{fill:#016fd0;}</style></defs><title>amex</title><path class="a" d="M116.5,180.6h767v239.8h-767z"/><path d="M116.5,180.6h767v239.8h-767z" fill="none" stroke="#016fd0" stroke-width="1.1"/><path fill="#fff" d="M160.2,307.7l-23.7-57.1h-31.2v82.3h22v-60l26,60h28.8v-82.3h-22M215.3,332.9h49.5v-17.4h-27.6v-15.2h27.1v-17.4h-27.1v-14.9h27.6v-17.4h-49.5M321.7,250.6h-36.4v82.3h36.4c11.8,0,35.6-3.2,35.6-41.2,0-37.9-23.8-41.1-35.6-41.1zm-14.5,65.1v-47.8h14.5c7.8,0 13.6,3.2 13.6,23.9 0,20.7-5.8 23.9-13.6 23.9h-14.5zM399.9,250.6h-21.9v82.3h21.9M454.1,298.7c12.7-3.2 12.7-13 12.7-15.2 0-15.5-10.9-32.9-35.6-32.9h-31.2v82.3h21.9v-31.5h2.5l23.7 31.5h27.1l-27.6-31.5c2.5,0 4.5-1.1 6.5-2.7zm-32.2-14.9v-15.8h9.3c5.4,0 13.6,1.1 13.6,7.9 0,7.9-8.2 7.9-13.6 7.9h-9.3zM478.8,332.9h49.5v-17.4h-27.6v-15.2h27.1v-17.4h-27.1v-14.9h27.6v-17.4h-49.5M586.2,250.6h-21.9v82.3h49.5v-17.4h-27.6M665.3,250.6h-21.9v82.3h21.9M720.5,298.7c12.7-3.2 12.7-13 12.7-15.2 0-15.5-10.9-32.9-35.6-32.9h-31.2v82.3h21.9v-31.5h2.5l23.7 31.5h27.1l-27.6-31.5c2.5,0 4.5-1.1 6.5-2.7zm-32.2-14.9v-15.8h9.3c5.4,0 13.6,1.1 13.6,7.9 0,7.9-8.2 7.9-13.6 7.9h-9.3zM745.2,332.9h49.5v-17.4h-27.6v-15.2h27.1v-17.4h-27.1v-14.9h27.6v-17.4h-49.5"/></svg>
