<svg xmlns="http://www.w3.org/2000/svg" viewBox="0 0 1000 600"><title>applepay</title><rect width="1000" height="600" fill="none"/><path d="M288.8,249.5c-10.9,0-20.7,5.3-27.9,5.3-7.6,0-15.2-5.3-27.9-5.3-15.2,0-32.2,9.8-32.2,35.5,0,27.9,24.6,60.1,32.2,60.1,7.6,0,12.9-5.3,24.6-5.3,11.7,0,16.9,5.3,24.6,5.3,7.6,0,24.6-26.8,24.6-48.4C306.8,271.3,299.2,249.5,288.8,249.5Z"/><path d="M261,229.9c7.6-9.8,13.8-23.6,11.7-37.4-12.9,1.1-27.9,9.8-35.5,19.5-7.6,9.8-13.8,23.6-11.7,35.5C238.5,248.4,253.4,239.7,261,229.9Z"/><path d="M423.6,345.1h-19.5l-10.9-34.3h-37.4l-10.9,34.3H326.3l37.4-116.9h22.5Zm-34.3-48.4-9.8-29c-1.1-3.2-3.2-10.9-5.3-22.5h-1.1c-1.1,9.8-3.2,17.4-5.3,22.5l-9.8,29Z"/><path d="M522.8,301.5c0,15.2-4.3,26.8-12.9,35.5-7.6,7.6-16.9,11.7-27.9,11.7-12.9,0-22.5-4.3-27.9-13.8v50.3h-19.5V287.7c0-9.8,0-19.5-1.1-29h16.9l1.1,13.8h1.1c7.6-10.9,18.5-16.9,32.2-16.9,10.9,0,19.5,4.3,26.8,12.9C519.6,276.9,522.8,288.6,522.8,301.5Zm-19.5,1.1c0-8.7-2.1-16.3-5.3-21.6-4.3-5.3-9.8-8.7-16.9-8.7-4.3,0-8.7,1.1-12.9,4.3-4.3,3.2-6.4,6.4-7.6,10.9-1.1,2.1-1.1,4.3-1.1,5.3v15.2c0,6.4,2.1,12.9,5.3,16.9,4.3,4.3,9.8,6.4,15.2,6.4,7.6,0,13.8-3.2,16.9-8.7C520.7,317.8,522.8,310.2,522.8,302.6Z"/><path d="M622,301.5c0,15.2-4.3,26.8-12.9,35.5-7.6,7.6-16.9,11.7-27.9,11.7-12.9,0-22.5-4.3-27.9-13.8v50.3h-19.5V287.7c0-9.8,0-19.5-1.1-29h16.9l1.1,13.8h1.1c7.6-10.9,18.5-16.9,32.2-16.9,10.9,0,19.5,4.3,26.8,12.9C618.8,276.9,622,288.6,622,301.5Zm-19.5,1.1c0-8.7-2.1-16.3-5.3-21.6-4.3-5.3-9.8-8.7-16.9-8.7-4.3,0-8.7,1.1-12.9,4.3-4.3,3.2-6.4,6.4-7.6,10.9-1.1,2.1-1.1,4.3-1.1,5.3v15.2c0,6.4,2.1,12.9,5.3,16.9,4.3,4.3,9.8,6.4,15.2,6.4,7.6,0,13.8-3.2,16.9-8.7C619.9,317.8,622,310.2,622,302.6Z"/><path d="M731.7,316.7c0,9.8-3.2,17.4-9.8,23.6-7.6,7.6-18.5,10.9-32.2,10.9-12.9,0-22.5-2.1-30.1-7.6l4.3-16.3c8.7,5.3,17.4,7.6,27.9,7.6,7.6,0,13.8-1.1,17.4-4.3,4.3-3.2,6.4-7.6,6.4-12.9,0-4.3-1.1-8.7-4.3-11.7-3.2-3.2-8.7-6.4-16.3-9.8-20.7-7.6-31.2-18.5-31.2-32.2,0-9.8,3.2-17.4,10.9-23.6,7.6-6.4,16.9-9.8,29-9.8,10.9,0,19.5,2.1,26.8,5.3l-5.3,16.3c-6.4-3.2-13.8-5.3-22.5-5.3-7.6,0-12.9,1.1-16.9,4.3-3.2,3.2-5.3,6.4-5.3,10.9,0,4.3,2.1,8.7,5.3,11.7,3.2,3.2,9.8,6.4,17.4,9.8,10.9,4.3,18.5,9.8,23.6,15.2C729.6,302.6,731.7,309.1,731.7,316.7Z"/><path d="M773.5,268.1h-21.6v43c0,10.9,3.2,16.3,11.7,16.3,3.2,0,6.4,0,8.7-1.1l1.1,14.1c-3.2,1.1-8.7,2.1-14.1,2.1-7.6,0-13.8-2.1-17.4-6.4-4.3-4.3-6.4-11.7-6.4-22.5v-44.1h-12.9v-14.1h12.9v-16.3l19.5-5.3v21.6h21.6v13.8Z"/></svg>
