<svg xmlns="http://www.w3.org/2000/svg" viewBox="0 0 1000 600"><title>googlepay</title><rect width="1000" height="600" fill="none"/><path d="M500,300m-200,0a200,200,0,1,0,400,0a200,200,0,1,0,-400,0" fill="#fff"/><path d="M385.7,300c0-8.2,0.7-16.2,2-23.8H300v45h49.7c-2.1,11.5-8.7,21.2-18.6,27.8v23h30.1C379.4,353.8,385.7,329.1,385.7,300z" fill="#4285f4"/><path d="M300,385.7c25.1,0,46.2-8.3,61.6-22.7l-30.1-23c-8.3,5.6-19.1,8.9-31.5,8.9c-24.2,0-44.7-16.3-52-38.2h-31v23.8C232.9,364.9,264.2,385.7,300,385.7z" fill="#34a853"/><path d="M248,310.7c-1.9-5.6-3-11.6-3-17.7s1.1-12.1,3-17.7v-23.8h-31c-6.3,12.5-9.9,26.7-9.9,41.5s3.6,29,9.9,41.5L248,310.7z" fill="#fbbc05"/><path d="M300,237.1c13.6,0,25.9,4.7,35.5,13.9l26.7-26.7c-16.1-15-37.1-24.2-62.2-24.2c-35.8,0-67.1,20.8-82,51.2l31,23.8C256.3,253.4,276.8,237.1,300,237.1z" fill="#ea4335"/><path d="M500,300m-200,0a200,200,0,1,0,400,0a200,200,0,1,0,-400,0" fill="none" stroke="#fff" stroke-width="4"/><path d="M500,300m-200,0a200,200,0,1,0,400,0a200,200,0,1,0,-400,0" fill="none" stroke="#ddd" stroke-width="1"/><path d="M500,300m-200,0a200,200,0,1,0,400,0a200,200,0,1,0,-400,0" fill="none" stroke="#bbb" stroke-width="1"/><path d="M500,300m-200,0a200,200,0,1,0,400,0a200,200,0,1,0,-400,0" fill="none" stroke="#999" stroke-width="1"/><path d="M500,300m-200,0a200,200,0,1,0,400,0a200,200,0,1,0,-400,0" fill="none" stroke="#777" stroke-width="1"/><path d="M500,300m-200,0a200,200,0,1,0,400,0a200,200,0,1,0,-400,0" fill="none" stroke="#555" stroke-width="1"/><path d="M500,300m-200,0a200,200,0,1,0,400,0a200,200,0,1,0,-400,0" fill="none" stroke="#333" stroke-width="1"/><path d="M500,300m-200,0a200,200,0,1,0,400,0a200,200,0,1,0,-400,0" fill="none" stroke="#000" stroke-width="1"/><path d="M450,250h100v100h-100z" fill="none"/><path d="M450,250h100v100h-100z" fill="none" stroke="#000" stroke-width="1"/><path d="M450,250h100v100h-100z" fill="none" stroke="#333" stroke-width="1"/><path d="M450,250h100v100h-100z" fill="none" stroke="#555" stroke-width="1"/><path d="M450,250h100v100h-100z" fill="none" stroke="#777" stroke-width="1"/><path d="M450,250h100v100h-100z" fill="none" stroke="#999" stroke-width="1"/><path d="M450,250h100v100h-100z" fill="none" stroke="#bbb" stroke-width="1"/><path d="M450,250h100v100h-100z" fill="none" stroke="#ddd" stroke-width="1"/><path d="M450,250h100v100h-100z" fill="none" stroke="#fff" stroke-width="4"/><path d="M450,250h100v100h-100z" fill="none"/><path d="M500,300m-200,0a200,200,0,1,0,400,0a200,200,0,1,0,-400,0" fill="none"/></svg>
