<svg xmlns="http://www.w3.org/2000/svg" viewBox="0 0 131.39 86.9"><defs><style>.a{fill:#ff5f00;}.b{fill:#eb001b;}.c{fill:#f79e1b;}</style></defs><title>mastercard</title><path class="a" d="M48.37,15.14h34.66V65.76H48.37Z"/><path class="b" d="M51.94,40.45a32.1,32.1,0,0,1,12.32-25.31,32.09,32.09,0,1,0,0,50.62A32.1,32.1,0,0,1,51.94,40.45Z"/><path class="c" d="M120.5,65.76V64.18h.76V63.72h-1.89v.46h.76v1.58Zm3.68,0V63.72h-.59l-.71,1.69-.71-1.69h-.59v2h.42V64.36l.66,1.4h.45l.66-1.4v1.4ZM123.94,40.45a32.09,32.09,0,0,1-51.68,25.31,32.09,32.09,0,0,0,0-50.62,32.09,32.09,0,0,1,51.68,25.31Z"/></svg>
