<svg xmlns="http://www.w3.org/2000/svg" viewBox="0 0 1000 300"><defs><style>.a{fill:#253b80;}.b{fill:#179bd7;}.c{fill:#222d65;}</style></defs><title>paypal</title><path class="a" d="M168.7,46.9c-9.2,0-16.7,7.5-16.7,16.7v95.8c0,9.2,7.5,16.7,16.7,16.7h95.8c9.2,0,16.7-7.5,16.7-16.7V63.6c0-9.2-7.5-16.7-16.7-16.7H168.7z"/><path class="b" d="M216.6,63.6c0-9.2,7.5-16.7,16.7-16.7h95.8c9.2,0,16.7,7.5,16.7,16.7v95.8c0,9.2-7.5,16.7-16.7,16.7h-95.8c-9.2,0-16.7-7.5-16.7-16.7V63.6z"/><path class="c" d="M264.5,80.3c0-9.2,7.5-16.7,16.7-16.7h95.8c9.2,0,16.7,7.5,16.7,16.7v95.8c0,9.2-7.5,16.7-16.7,16.7h-95.8c-9.2,0-16.7-7.5-16.7-16.7V80.3z"/><path fill="#fff" d="M505.1,108.2c0-21.1-17.9-38.1-39.9-38.1h-58.7c-2.7,0-5.1,2-5.5,4.7l-16.2,103c-0.3,2.1,1.3,4,3.4,4h24.8c2,0,3.7-1.4,4-3.4l4.6-29.1c0.4-2.7,2.7-4.7,5.5-4.7h18.5c22,0,39.9-17,39.9-38.1C485.5,106.5,505.1,108.2,505.1,108.2z M452.7,108.2c0,8.4-7.1,15.2-15.8,15.2h-15.8c-2,0-3.7,1.4-4,3.4l-4.6,29.1c-0.3,2.1,1.3,4,3.4,4h24.8c2,0,3.7-1.4,4-3.4l7.9-50.1C452.7,106.5,452.7,108.2,452.7,108.2z"/><path fill="#fff" d="M614.3,108.2c0-21.1-17.9-38.1-39.9-38.1h-58.7c-2.7,0-5.1,2-5.5,4.7l-16.2,103c-0.3,2.1,1.3,4,3.4,4h24.8c2,0,3.7-1.4,4-3.4l4.6-29.1c0.4-2.7,2.7-4.7,5.5-4.7h18.5c22,0,39.9-17,39.9-38.1C594.7,106.5,614.3,108.2,614.3,108.2z M561.9,108.2c0,8.4-7.1,15.2-15.8,15.2h-15.8c-2,0-3.7,1.4-4,3.4l-4.6,29.1c-0.3,2.1,1.3,4,3.4,4h24.8c2,0,3.7-1.4,4-3.4l7.9-50.1C561.9,106.5,561.9,108.2,561.9,108.2z"/><path fill="#fff" d="M723.6,70.1h-24.8c-2,0-3.7,1.4-4,3.4l-16.2,103c-0.3,2.1,1.3,4,3.4,4h24.8c2,0,3.7-1.4,4-3.4l16.2-103C727.3,72,725.7,70.1,723.6,70.1z"/></svg>
