<svg xmlns="http://www.w3.org/2000/svg" viewBox="0 0 1000 324.68"><defs><style>.a{fill:#1434cb;}</style></defs><title>visa</title><path class="a" d="M651.19,0c-70.64,0-134,36.37-134,104.34,0,77.45,113.1,82.55,113.1,122.81,0,16.52-18.85,31-51,31-45.66,0-79.73-20.28-79.73-20.28l-14.31,67.12s39.4,17.42,91.68,17.42c77.45,0,138.07-38.28,138.07-106.89,0-81.64-113.73-87.37-113.73-123.44,0-12.71,15.22-26.4,47.57-26.4,36.37,0,65.54,15.22,65.54,15.22l14-65.54S696.85,0,651.19,0M321.23,7.05l-14.31,89.3c-2.54,15.85-15.22,26.4-31.37,26.4H145.08L221.9,312.6h85.82L435.6,7.05ZM0,7.05,0,312.6H79.1L177,7.05ZM867.35,7.05c-20.28,0-31.37,10.8-39.4,29.65L709.56,312.6h84.19l16.52-47.57H935.1l9.43,47.57h74.28L955.38,7.05ZM901.36,94.91l22.19,107.52H833.28L901.36,94.91Z"/></svg>
